<svg xmlns="http://www.w3.org/2000/svg" viewBox="0 0 900 620" role="img" aria-labelledby="title desc">
  <title id="title">Fintech Card Vorschau</title>
  <desc id="desc">Fintech-Oberflaeche mit Karte, Sicherheitsstatus und Transaktionsliste.</desc>
  <rect width="900" height="620" fill="#f0f2ec"/>
  <rect x="72" y="74" width="756" height="472" rx="24" fill="#fffdf8" stroke="#151617" stroke-opacity=".14" stroke-width="2"/>
  <rect x="122" y="130" width="318" height="202" rx="22" fill="#315fa8"/>
  <circle cx="172" cy="180" r="24" fill="#dce5ee" opacity=".85"/>
  <circle cx="206" cy="180" r="24" fill="#b45335" opacity=".85"/>
  <rect x="164" y="256" width="180" height="18" rx="9" fill="#fffdf8"/>
  <rect x="164" y="288" width="96" height="14" rx="7" fill="#fffdf8" opacity=".62"/>
  <rect x="492" y="130" width="238" height="202" rx="22" fill="#dce5ee"/>
  <path d="M612 172c38 0 70 30 70 68 0 50-52 76-70 86-18-10-70-36-70-86 0-38 32-68 70-68Z" fill="#fffdf8"/>
  <path d="M584 236l22 22 44-54" fill="none" stroke="#315fa8" stroke-width="14" stroke-linecap="round" stroke-linejoin="round"/>
  <rect x="122" y="378" width="608" height="54" rx="16" fill="#f0f2ec"/>
  <rect x="154" y="398" width="160" height="14" rx="7" fill="#151617" opacity=".64"/>
  <rect x="606" y="394" width="82" height="22" rx="11" fill="#7b8a2f"/>
  <rect x="122" y="454" width="608" height="54" rx="16" fill="#f0f2ec"/>
  <rect x="154" y="474" width="204" height="14" rx="7" fill="#151617" opacity=".64"/>
  <rect x="606" y="470" width="82" height="22" rx="11" fill="#b45335"/>
</svg>
