<svg xmlns="http://www.w3.org/2000/svg" viewBox="0 0 900 620" role="img" aria-labelledby="title desc">
  <title id="title">SaaS Dashboard Vorschau</title>
  <desc id="desc">Abstrakte Dashboard-Oberflaeche mit Metriken, Diagrammen und Aufgabenlisten.</desc>
  <rect width="900" height="620" fill="#f6f1e8"/>
  <rect x="46" y="42" width="808" height="536" rx="18" fill="#fffdf8" stroke="#151617" stroke-opacity=".16" stroke-width="2"/>
  <rect x="82" y="82" width="164" height="456" rx="14" fill="#16201f"/>
  <circle cx="116" cy="118" r="18" fill="#93d7c9"/>
  <rect x="148" y="105" width="58" height="10" rx="5" fill="#fffdf8"/>
  <rect x="106" y="172" width="96" height="12" rx="6" fill="#fffdf8" opacity=".55"/>
  <rect x="106" y="212" width="112" height="12" rx="6" fill="#fffdf8" opacity=".36"/>
  <rect x="106" y="252" width="78" height="12" rx="6" fill="#fffdf8" opacity=".36"/>
  <rect x="106" y="292" width="104" height="12" rx="6" fill="#fffdf8" opacity=".36"/>
  <rect x="286" y="86" width="240" height="116" rx="14" fill="#e8efe7"/>
  <rect x="552" y="86" width="254" height="116" rx="14" fill="#fff2dc"/>
  <rect x="316" y="118" width="88" height="14" rx="7" fill="#006b64"/>
  <rect x="316" y="152" width="158" height="20" rx="10" fill="#151617"/>
  <rect x="582" y="118" width="104" height="14" rx="7" fill="#d19a22"/>
  <rect x="582" y="152" width="174" height="20" rx="10" fill="#151617"/>
  <rect x="286" y="230" width="322" height="206" rx="14" fill="#fffdf8" stroke="#151617" stroke-opacity=".12"/>
  <polyline points="324 378 382 326 438 344 506 278 568 308" fill="none" stroke="#006b64" stroke-width="12" stroke-linecap="round" stroke-linejoin="round"/>
  <rect x="638" y="230" width="168" height="206" rx="14" fill="#edf2f6" stroke="#151617" stroke-opacity=".12"/>
  <circle cx="722" cy="310" r="54" fill="none" stroke="#315fa8" stroke-width="20"/>
  <path d="M722 256a54 54 0 0 1 50 74" fill="none" stroke="#e85f3d" stroke-width="20" stroke-linecap="round"/>
  <rect x="286" y="462" width="520" height="50" rx="12" fill="#f0eadf"/>
  <rect x="316" y="480" width="176" height="12" rx="6" fill="#151617" opacity=".7"/>
  <rect x="670" y="476" width="88" height="20" rx="10" fill="#006b64"/>
</svg>
